<?xml version="1.0" standalone="no"?>
<!DOCTYPE svg PUBLIC "-//W3C//DTD SVG 20010904//EN"
 "http://www.w3.org/TR/2001/REC-SVG-20010904/DTD/svg10.dtd">
<svg version="1.0" xmlns="http://www.w3.org/2000/svg"
 width="440.000000pt" height="440.000000pt" viewBox="0 0 440.000000 440.000000"
 preserveAspectRatio="xMidYMid meet">
<metadata>
Created by potrace 1.11, written by Peter Selinger 2001-2013
</metadata>
<g transform="translate(0.000000,440.000000) scale(0.100000,-0.100000)"
fill="#000000" stroke="none">
<path d="M1660 4320 c0 -47 4 -80 10 -80 6 0 10 -40 10 -100 0 -60 4 -100 10
-100 6 0 10 -50 10 -130 0 -80 4 -130 10 -130 6 0 10 -53 10 -140 0 -87 4
-140 10 -140 6 0 10 -56 10 -149 0 -110 3 -151 13 -154 9 -4 8 -8 -3 -17 -11
-9 -12 -13 -2 -17 9 -3 12 -54 12 -204 0 -126 4 -199 10 -199 6 0 10 -90 10
-250 0 -160 4 -250 10 -250 6 0 10 -70 10 -190 0 -120 4 -190 10 -190 6 0 10
-53 10 -140 0 -87 4 -140 10 -140 6 0 10 -22 10 -50 0 -27 -3 -50 -6 -50 -10
0 -34 28 -34 40 0 6 -18 29 -40 50 -22 21 -40 44 -40 50 0 6 -18 29 -40 50
-22 21 -40 44 -40 50 0 6 -22 33 -50 60 -27 27 -50 54 -50 60 0 6 -18 29 -40
50 -22 21 -40 44 -40 50 0 6 -18 29 -40 50 -22 21 -40 44 -40 50 0 6 -22 33
-50 60 -27 27 -50 54 -50 60 0 7 -13 25 -30 40 -16 15 -30 33 -30 40 0 6 -22
33 -50 60 -27 27 -50 54 -50 60 0 6 -22 33 -50 60 -27 27 -50 54 -50 60 0 6
-18 29 -40 50 -22 21 -40 44 -40 50 0 6 -18 29 -40 50 -22 21 -40 44 -40 50 0
6 -18 29 -40 50 -22 21 -40 44 -40 50 0 6 -18 29 -40 50 -22 21 -40 44 -40 50
0 6 -22 33 -50 60 -27 27 -50 54 -50 60 0 6 -18 29 -40 50 -22 21 -40 44 -40
50 0 6 -18 29 -40 50 -22 21 -40 44 -40 50 0 6 -18 29 -40 50 -22 21 -40 44
-40 50 0 6 -22 33 -50 60 -27 27 -50 54 -50 60 0 6 -18 29 -40 50 -22 21 -40
44 -40 50 0 6 -18 29 -40 50 -22 21 -40 44 -40 50 0 6 -18 29 -40 50 -22 21
-40 46 -40 54 0 9 -4 16 -10 16 -6 0 -10 -29 -10 -66 0 -63 1 -67 40 -104 22
-21 40 -44 40 -50 0 -6 18 -29 40 -50 22 -21 40 -44 40 -50 0 -6 18 -29 40
-50 22 -21 40 -44 40 -50 0 -6 18 -29 40 -50 22 -21 40 -44 40 -50 0 -6 23
-33 50 -60 28 -27 50 -54 50 -60 0 -6 18 -29 40 -50 22 -21 40 -44 40 -50 0
-6 23 -33 50 -60 28 -27 50 -54 50 -60 0 -6 18 -29 40 -50 22 -21 40 -44 40
-50 0 -6 18 -29 40 -50 22 -21 40 -44 40 -50 0 -6 18 -29 40 -50 22 -21 40
-44 40 -50 0 -6 23 -33 50 -60 28 -27 50 -54 50 -60 0 -6 18 -29 40 -50 22
-21 40 -44 40 -50 0 -6 18 -29 40 -50 22 -21 40 -44 40 -50 0 -6 18 -29 40
-50 22 -21 40 -44 40 -50 0 -6 18 -29 40 -50 22 -21 40 -44 40 -50 0 -6 23
-33 50 -60 28 -27 50 -54 50 -60 0 -6 18 -29 40 -50 22 -21 40 -44 40 -50 0
-6 22 -33 50 -60 27 -27 50 -54 50 -60 0 -6 18 -29 40 -50 22 -21 40 -44 40
-50 0 -6 18 -29 40 -50 22 -21 40 -44 40 -50 0 -6 18 -29 40 -50 22 -21 40
-44 40 -50 0 -6 18 -29 40 -50 35 -34 40 -44 40 -84 0 -25 -4 -46 -10 -46 -5
0 -10 -7 -10 -16 0 -8 -18 -33 -40 -54 -22 -21 -40 -44 -40 -50 0 -6 -18 -29
-40 -50 -22 -21 -40 -44 -40 -50 0 -6 -22 -33 -50 -60 -27 -27 -50 -54 -50
-60 0 -6 -18 -29 -40 -50 -22 -21 -40 -44 -40 -50 0 -6 -22 -33 -50 -60 -27
-27 -50 -54 -50 -60 0 -6 -18 -29 -40 -50 -22 -21 -40 -44 -40 -50 0 -7 -13
-25 -30 -40 l-30 -28 0 -266 0 -266 80 0 80 0 0 296 0 296 40 38 c22 21 40 44
40 50 0 6 18 29 40 50 22 21 40 44 40 50 0 12 24 40 34 40 3 0 6 -184 6 -410
l0 -410 176 0 c151 0 178 2 192 17 12 12 13 18 4 21 -16 5 -16 39 1 46 10 5
10 7 0 12 -15 7 -18 104 -3 104 6 0 10 9 10 20 0 11 -4 20 -10 20 -15 0 -12
57 3 63 9 4 8 8 -3 16 -13 10 -13 12 0 22 11 8 12 12 3 16 -15 6 -17 43 -3 43
15 0 13 97 -2 103 -10 4 -9 8 2 17 11 9 12 13 3 17 -15 6 -18 63 -3 63 6 0 10
9 10 20 0 11 -4 20 -10 20 -14 0 -12 37 3 43 9 4 8 8 -3 17 -11 9 -12 13 -3
17 15 6 18 63 3 63 -14 0 -12 37 3 44 10 5 10 7 0 12 -7 3 -13 23 -13 44 0 21
6 41 13 44 10 5 10 7 0 12 -15 7 -18 64 -3 64 6 0 10 14 10 30 0 17 -4 30 -10
30 -15 0 -13 117 3 123 9 4 8 8 -3 16 -13 10 -13 12 0 22 11 8 12 12 3 16 -22
8 -15 34 17 63 17 15 30 33 30 40 0 6 23 33 50 60 28 27 50 54 50 60 0 6 18
29 40 50 22 21 40 46 40 54 0 9 5 16 10 16 7 0 10 -270 10 -790 l0 -790 510 0
510 0 0 56 c0 49 4 59 30 84 17 15 30 35 30 44 0 9 8 16 20 16 11 0 20 7 20
15 0 14 162 185 175 185 3 0 5 -90 5 -200 l0 -200 430 0 430 0 0 2180 c0 1199
-2 2180 -5 2180 -11 0 -55 -49 -55 -60 0 -7 -18 -29 -40 -50 -22 -21 -40 -44
-40 -50 0 -6 -23 -33 -50 -60 -27 -27 -50 -54 -50 -60 0 -6 -18 -29 -40 -50
-22 -21 -40 -44 -40 -50 0 -6 -23 -33 -50 -60 -28 -27 -50 -54 -50 -60 0 -6
-18 -29 -40 -50 -22 -21 -40 -44 -40 -50 0 -6 -18 -29 -40 -50 -22 -21 -40
-44 -40 -50 0 -6 -23 -33 -50 -60 -28 -27 -50 -54 -50 -60 0 -6 -18 -29 -40
-50 -22 -21 -40 -44 -40 -50 0 -6 -18 -29 -40 -50 -22 -21 -40 -44 -40 -50 0
-6 -27 -38 -60 -70 -33 -32 -60 -64 -60 -70 0 -6 -18 -29 -40 -50 -22 -21 -40
-44 -40 -50 0 -6 -18 -29 -40 -50 -22 -21 -40 -44 -40 -50 0 -6 -18 -29 -40
-50 -22 -21 -40 -44 -40 -50 0 -6 -22 -33 -50 -60 -27 -27 -50 -54 -50 -60 0
-6 -18 -29 -40 -50 -22 -21 -40 -44 -40 -50 0 -6 -18 -29 -40 -50 -22 -21 -40
-44 -40 -50 0 -6 -27 -38 -60 -70 -33 -32 -60 -64 -60 -70 0 -7 -13 -25 -30
-40 -16 -15 -30 -33 -30 -40 0 -6 -27 -38 -60 -70 -33 -32 -60 -64 -60 -70 0
-6 -18 -29 -40 -50 -22 -21 -40 -44 -40 -50 0 -6 -18 -29 -40 -50 -22 -21 -40
-44 -40 -50 0 -6 -18 -29 -40 -50 -22 -21 -40 -44 -40 -50 0 -6 -22 -33 -50
-60 -27 -27 -50 -54 -50 -60 0 -6 -18 -29 -40 -50 -22 -21 -40 -44 -40 -50 0
-6 -22 -33 -50 -60 -27 -27 -50 -54 -50 -60 0 -6 -18 -29 -40 -50 -22 -21 -40
-44 -40 -50 0 -12 -24 -40 -34 -40 -3 0 -6 14 -6 30 0 17 -4 30 -10 30 -6 0
-10 47 -10 120 0 73 -4 120 -10 120 -6 0 -10 56 -10 149 0 110 -3 151 -12 154
-10 4 -9 8 2 17 11 9 12 13 3 17 -10 3 -13 58 -13 224 0 139 -4 219 -10 219
-6 0 -10 90 -10 250 0 160 -4 250 -10 250 -6 0 -10 63 -10 170 0 107 -4 170
-10 170 -6 0 -10 57 -10 150 0 93 -4 150 -10 150 -6 0 -10 50 -10 130 0 80 -4
130 -10 130 -6 0 -10 47 -10 120 0 73 -4 120 -10 120 -6 0 -10 40 -10 100 0
60 -4 100 -10 100 -5 0 -10 9 -10 20 0 18 -7 20 -70 20 l-70 0 0 -80z m2280
-1705 l0 -1026 -130 -129 c-71 -71 -130 -136 -130 -145 0 -8 -9 -15 -20 -15
-22 0 -28 35 -7 43 9 4 8 8 -3 17 -11 9 -12 13 -2 17 6 2 12 17 12 33 0 16 -6
31 -12 33 -10 4 -9 8 2 17 11 9 12 13 3 17 -7 2 -13 13 -13 23 0 10 6 21 13
24 10 5 10 7 0 12 -7 3 -13 23 -13 44 0 21 6 41 13 44 10 5 10 7 0 12 -7 3
-13 14 -13 24 0 10 6 21 13 23 9 4 8 8 -3 16 -13 10 -13 12 0 22 11 8 12 12 3
16 -8 3 -13 26 -13 63 0 37 5 60 13 63 9 4 8 8 -3 17 -11 9 -12 13 -2 17 6 2
12 13 12 23 0 10 -6 21 -12 23 -10 4 -9 8 2 17 11 9 12 13 3 17 -7 2 -13 17
-13 33 0 16 6 31 13 33 9 4 8 8 -3 17 -11 9 -12 13 -2 17 6 2 12 13 12 23 0
10 -6 21 -12 23 -10 4 -9 8 2 17 11 9 12 13 3 17 -15 6 -17 43 -3 43 15 0 12
57 -2 63 -10 4 -9 8 2 16 13 10 13 12 0 22 -11 8 -12 12 -2 16 7 3 12 24 12
53 0 29 -5 50 -12 53 -10 4 -9 8 2 17 11 9 12 13 3 17 -7 2 -13 17 -13 33 0
16 6 31 13 34 10 5 10 7 0 12 -15 7 -18 84 -3 84 14 0 12 37 -2 43 -10 4 -9 8
2 17 11 9 12 13 3 17 -7 2 -13 22 -13 43 0 21 6 41 13 44 10 5 10 7 0 12 -7 3
-13 23 -13 44 0 21 6 41 13 44 10 5 10 7 0 12 -7 3 -13 23 -13 44 0 21 6 41
13 44 10 5 10 7 0 12 -15 7 -17 44 -3 44 14 0 12 37 -2 43 -10 4 -9 8 2 16 13
10 13 12 0 21 -13 9 -13 11 0 21 11 8 12 12 3 16 -7 2 -13 13 -13 23 0 10 6
21 13 24 10 5 10 7 0 12 -7 3 -13 21 -13 41 0 26 8 42 30 63 17 15 30 33 30
40 0 6 23 33 50 60 28 27 50 54 50 60 0 6 18 29 40 50 22 21 40 43 40 50 0 12
41 58 53 59 4 1 7 -460 7 -1024z m-400 -460 l0 -1005 -145 -145 c-80 -80 -147
-145 -150 -145 -3 0 -5 439 -5 976 l0 975 50 49 c28 27 50 54 50 60 0 6 18 29
40 50 22 21 40 44 40 50 0 6 18 29 40 50 22 21 40 43 40 50 0 13 21 39 33 40
4 0 7 -452 7 -1005z m-660 -760 l0 -945 -115 -115 c-63 -63 -117 -115 -120
-115 -3 0 -5 418 -5 928 0 916 0 928 20 942 11 8 20 20 20 28 0 7 23 35 50 62
28 27 50 54 50 60 0 11 80 98 93 99 4 1 7 -424 7 -944z m1460 220 l0 -265
-155 -155 c-85 -85 -157 -155 -160 -155 -3 0 -5 111 -5 246 l0 245 50 49 c28
27 50 54 50 60 0 6 45 55 100 110 55 55 100 106 100 115 0 8 5 15 10 15 6 0
10 -95 10 -265z m-400 -450 l0 -236 -25 -24 c-13 -14 -29 -25 -35 -25 -6 0
-56 -45 -111 -101 -92 -93 -101 -99 -116 -84 -14 14 -14 18 -2 27 11 7 11 11
2 15 -8 3 -13 24 -13 53 0 29 5 50 13 53 9 4 8 8 -3 17 -11 9 -12 13 -2 17 6
2 12 17 12 33 0 16 -6 31 -12 33 -10 4 -9 8 2 17 11 9 12 13 3 17 -7 2 -13 22
-13 43 0 21 6 41 13 43 9 4 9 8 -2 15 -12 9 -9 16 17 40 18 17 32 35 32 41 0
12 220 239 233 240 4 1 7 -105 7 -234z m0 -620 l0 -236 -25 -24 c-13 -14 -29
-25 -35 -25 -6 0 -33 -22 -60 -50 -27 -27 -54 -50 -60 -50 -6 0 -29 -18 -50
-40 -46 -48 -70 -52 -70 -11 0 16 6 32 13 35 10 5 10 7 0 12 -15 7 -18 64 -3
64 6 0 10 9 10 20 0 11 -4 20 -10 20 -15 0 -12 57 3 63 9 4 8 8 -3 17 -11 9
-12 13 -2 17 6 2 12 22 12 43 0 21 -6 41 -12 43 -10 4 -9 8 2 16 13 10 13 12
0 22 -11 8 -12 12 -2 16 6 2 12 13 12 24 0 11 7 19 18 20 9 0 69 54 132 119
63 65 118 119 123 119 4 1 7 -105 7 -234z"/>
<path d="M2000 3530 c0 -5 5 -10 10 -10 6 0 10 5 10 10 0 6 -4 10 -10 10 -5 0
-10 -4 -10 -10z"/>
<path d="M2000 3130 c0 -5 5 -10 10 -10 6 0 10 5 10 10 0 6 -4 10 -10 10 -5 0
-10 -4 -10 -10z"/>
<path d="M880 1710 c0 -5 5 -10 10 -10 6 0 10 5 10 10 0 6 -4 10 -10 10 -5 0
-10 -4 -10 -10z"/>
<path d="M1460 1610 c0 -5 5 -10 10 -10 6 0 10 5 10 10 0 6 -4 10 -10 10 -5 0
-10 -4 -10 -10z"/>
</g>
</svg>
